<svg xmlns="http://www.w3.org/2000/svg" viewBox="0 0 82.62 143.39"><defs><style>.cls-1{fill:#fff;}.cls-2{fill:#f29100;}</style></defs><g id="Capa_2" data-name="Capa 2"><g id="Capa_1-2" data-name="Capa 1"><path class="cls-1" d="M43.39,36.63V47.48H40.15V62.66a2.61,2.61,0,0,0,.26,1.3,1.66,1.66,0,0,0,.7.64,2.5,2.5,0,0,0,1,.2h1.24V75.65H40.15a13,13,0,0,1-5.74-1.07,7.62,7.62,0,0,1-3.29-3,11.79,11.79,0,0,1-1.47-4.47,41.9,41.9,0,0,1-.35-5.57V47.48H26.13V58.39H17.35V47.48H14.12V61.57a40.33,40.33,0,0,1-.41,6.09A10.12,10.12,0,0,1,12,72.07a7.62,7.62,0,0,1-3.61,2.69,17.9,17.9,0,0,1-6.2.89H0V64.8H1.25a2.62,2.62,0,0,0,1-.2A1.57,1.57,0,0,0,3,64a2.61,2.61,0,0,0,.26-1.3V47.48H0V36.63Z"/><path class="cls-1" d="M25,32.12H17a16.64,16.64,0,0,1-6.61-1.33A17.26,17.26,0,0,1,5,27.15a17,17,0,0,1-3.63-5.39A16.46,16.46,0,0,1,0,15.16V9.83L0,0H9V13.45a15.94,15.94,0,0,0,.59,4.41,8,8,0,0,0,2.07,3.5,7.37,7.37,0,0,0,4.47,1.78V0H25Z"/><path class="cls-1" d="M55.37,24.09a7.73,7.73,0,0,1-.64,3.11,8.38,8.38,0,0,1-4.28,4.28,7.73,7.73,0,0,1-3.11.64H26.81L40.69,8.93H37.5a2.06,2.06,0,0,0-1.07.22,1.3,1.3,0,0,0-.52.59,2.19,2.19,0,0,0-.16.88v1H26.81V8a7.69,7.69,0,0,1,.64-3.11,8.2,8.2,0,0,1,1.74-2.54A8.32,8.32,0,0,1,31.73.64,7.56,7.56,0,0,1,34.84,0H55.37L41.49,23.19h3.19A2.18,2.18,0,0,0,45.75,23a1.3,1.3,0,0,0,.52-.59,2.09,2.09,0,0,0,.17-.86v-1h8.93Z"/><path class="cls-1" d="M82.62,32.12h-8A16.64,16.64,0,0,1,68,30.79a17.15,17.15,0,0,1-5.39-3.64A16.85,16.85,0,0,1,59,21.76a16.46,16.46,0,0,1-1.33-6.6V0h8.93V13.45a15.94,15.94,0,0,0,.59,4.41,8,8,0,0,0,2.07,3.5,7.37,7.37,0,0,0,4.47,1.78V0h8.93Z"/><path class="cls-1" d="M82.62,36.63V47.5H79.38V62.6a2.61,2.61,0,0,0,.26,1.32,1.38,1.38,0,0,0,.71.66,2.38,2.38,0,0,0,1,.2h1.25V75.65H78.28A9.54,9.54,0,0,1,73,74.38,8.49,8.49,0,0,1,70,71.11a12.8,12.8,0,0,1-1.27-4.51,49.93,49.93,0,0,1-.26-5H59.84v4.39a9.28,9.28,0,0,1-.78,3.79A10.34,10.34,0,0,1,57,72.82a9.76,9.76,0,0,1-6.88,2.83h-4.4V64.78H47a2.51,2.51,0,0,0,1-.2,1.48,1.48,0,0,0,.72-.66A2.72,2.72,0,0,0,49,62.6V47.5h-3.3V36.63ZM68.51,54.35V47.5H59.84v6.85Z"/><path class="cls-1" d="M37.54,80.16c-1.09,1.57-2.37,3.45-3.82,5.64s-2.83,4.5-4.14,6.92A59.36,59.36,0,0,0,26.26,100a19.28,19.28,0,0,0-1.35,6.64A7.12,7.12,0,0,0,26.09,111a8.35,8.35,0,0,0,3,2.53,12.31,12.31,0,0,0,4.07,1.22,34.86,34.86,0,0,0,4.39.28v13.42a42.94,42.94,0,0,1-7.39-.64,26.3,26.3,0,0,1-6.74-2.15,21.91,21.91,0,0,1-5.71-3.92,19.87,19.87,0,0,1-4.28-6.07v12.78H0V80.16H13.42V96.22A47,47,0,0,1,17,87.94q2.18-4,4.53-7.78Z"/><rect class="cls-1" x="40.6" y="80.16" width="13.42" height="48.25"/><path class="cls-2" d="M66.85,112.84a6.4,6.4,0,0,0,.71-.55,7.07,7.07,0,0,0,2.23-3.57,7,7,0,0,0-.49-4.83,5.39,5.39,0,0,0-4.82-3.35,2.26,2.26,0,0,0-1.06.15h.32a4.94,4.94,0,0,1,3.5,1.49,5.74,5.74,0,0,1,.9,6.64,5.94,5.94,0,0,1-1.47,1.75,6.6,6.6,0,0,1-7.23.72A7,7,0,0,1,56.9,109v4.37a6.88,6.88,0,0,0,.77.38A9.15,9.15,0,0,0,66.85,112.84Z"/><path class="cls-2" d="M82.46,106.3A18.66,18.66,0,0,0,76.1,94.18a15.07,15.07,0,0,0-10.76-3.75,15.31,15.31,0,0,0-8.44,2.84h0v7.1a7.65,7.65,0,0,1,2.53-2.47,9.87,9.87,0,0,1,3.27-1.19,9.2,9.2,0,0,1,9.84,4.75,11.29,11.29,0,0,1-4.31,15.25,13.08,13.08,0,0,1-6.87,1.82,13.88,13.88,0,0,1-4.46-.79v9.82a20.88,20.88,0,0,0,10.93.19,18.87,18.87,0,0,0,6.25-2.85,20.53,20.53,0,0,0,5.12-5.3A18.87,18.87,0,0,0,82.46,106.3Z"/><path class="cls-1" d="M2.9,143.39a4.63,4.63,0,0,1-1.26-.16,3.81,3.81,0,0,1-1.14-.57v-1.53h.89l.15,1a1.9,1.9,0,0,0,.59.28,2.76,2.76,0,0,0,.77.11,1.78,1.78,0,0,0,.69-.12,1,1,0,0,0,.42-.33.81.81,0,0,0,.14-.49A.89.89,0,0,0,4,141.1a1.15,1.15,0,0,0-.43-.37,3.56,3.56,0,0,0-.8-.3A5.73,5.73,0,0,1,1.55,140a2.11,2.11,0,0,1-.75-.65,1.62,1.62,0,0,1-.26-.91,1.64,1.64,0,0,1,.29-.95,2,2,0,0,1,.81-.64,3,3,0,0,1,1.19-.25,3.76,3.76,0,0,1,1.31.2,3.1,3.1,0,0,1,1,.52v1.43H4.23l-.16-.93a2,2,0,0,0-.49-.23,2.43,2.43,0,0,0-.7-.09,1.67,1.67,0,0,0-.62.11,1,1,0,0,0-.41.33.79.79,0,0,0-.15.49.72.72,0,0,0,.13.44,1.14,1.14,0,0,0,.44.34,5.46,5.46,0,0,0,.84.31,4,4,0,0,1,1.64.79,1.65,1.65,0,0,1,.56,1.3,1.57,1.57,0,0,1-.3,1,2,2,0,0,1-.84.65A3.28,3.28,0,0,1,2.9,143.39Z"/><path class="cls-1" d="M9.39,143.3v-.71l.73-.13v-4.93H8.78l-.1.85H7.82v-1.73h5.76v1.73h-.87l-.1-.85H11.27v4.93l.73.13v.71Z"/><path class="cls-1" d="M16.06,143.3v-.71l.73-.13v-5l-.73-.14v-.7h3.08a3.08,3.08,0,0,1,1.28.23,1.77,1.77,0,0,1,.81.66,2,2,0,0,1,0,2.05,1.82,1.82,0,0,1-.77.68,2.8,2.8,0,0,1-1.17.25H17.94v1.93l.73.13v.71Zm1.88-3.67h1.15a1.45,1.45,0,0,0,1-.26.93.93,0,0,0,.31-.76,1,1,0,0,0-.3-.78,1.26,1.26,0,0,0-.92-.29h-1.2Zm2.45,3.67-1.27-3.06,1.08-.18,1.08,2.42.52.11v.71Z"/><path class="cls-1" d="M24.32,143.3v-.71l.73-.13v-5l-.73-.14v-.7h5.07v1.71H28.5l-.08-.83H26.2v1.88h2.34v.9H26.2v2.11h2.34l.08-.84h.89v1.72Z"/><path class="cls-1" d="M32.17,143.3v-.71l.73-.13v-5l-.73-.14v-.7h5.07v1.71h-.9l-.08-.83H34.05v1.88h2.33v.9H34.05v2.11h2.34l.07-.84h.89v1.72Z"/><path class="cls-1" d="M41.69,143.3v-.71l.72-.13v-4.93H41.07l-.1.85h-.86v-1.73h5.76v1.73H45l-.1-.85H43.56v4.93l.73.13v.71Z"/><path class="cls-1" d="M50.53,143.3,49,137.42l-.63-.07v-.7h2.46v.7l-.71.11.82,3.42.17.7h0l.21-.7,1.32-4.23h.9l1.36,4.3.2.68h0l.18-.68.83-3.49-.75-.11v-.7h2.41v.7l-.59.07-1.53,5.88H54.63l-1.34-4.19-.16-.61h0l-.18.62-1.35,4.18Z"/><path class="cls-1" d="M60.22,143.3v-.71l.72-.13v-5l-.72-.14v-.7h5.06v1.71h-.89l-.08-.83H62.09v1.88h2.34v.9H62.09v2.11h2.34l.08-.84h.89v1.72Z"/><path class="cls-1" d="M68,143.3v-.71l.49-.06,2.2-5.88h1.12L74,142.53l.49.06v.71H72.35v-.71l.48-.08-.36-1H70l-.36,1,.48.08v.71Zm2.3-2.72h1.88l-.87-2.46-.06-.18h0l-.07.19Z"/><path class="cls-1" d="M76.88,143.3v-.71l.73-.13v-5l-.73-.14v-.7H80a3.12,3.12,0,0,1,1.28.23,1.77,1.77,0,0,1,.81.66,1.89,1.89,0,0,1-.77,2.73,2.8,2.8,0,0,1-1.17.25H78.76v1.93l.73.13v.71Zm1.88-3.67h1.15a1.45,1.45,0,0,0,1-.26,1,1,0,0,0,.31-.76,1,1,0,0,0-.3-.78,1.26,1.26,0,0,0-.92-.29h-1.2Zm2.45,3.67-1.27-3.06,1.08-.18,1.08,2.42.52.11v.71Z"/></g></g></svg>